<?xml version="1.0" standalone="no"?>
<!DOCTYPE svg PUBLIC "-//W3C//DTD SVG 20010904//EN"
 "http://www.w3.org/TR/2001/REC-SVG-20010904/DTD/svg10.dtd">
<svg version="1.0" xmlns="http://www.w3.org/2000/svg"
 width="900.000000pt" height="786.000000pt" viewBox="0 0 900.000000 786.000000"
 preserveAspectRatio="xMidYMid meet">
<metadata>
Created by potrace 1.10, written by Peter Selinger 2001-2011
</metadata>
<g transform="translate(0.000000,786.000000) scale(0.100000,-0.100000)"
fill="#000000" stroke="none">
<path d="M0 3930 l0 -3930 4500 0 4500 0 0 3930 0 3930 -4500 0 -4500 0 0
-3930z m4312 3607 c2 -7 2 -87 0 -178 l-4 -167 -29 -6 c-16 -3 -32 -12 -35
-19 -4 -10 -13 -6 -37 16 l-32 30 -2 129 c0 71 -4 136 -7 145 -9 23 3 53 24
61 28 10 118 2 122 -11z m176 -6 c4 -11 5 -91 2 -178 -5 -148 -6 -158 -25
-161 -40 -8 -45 -21 -45 -116 0 -58 4 -96 12 -104 9 -9 6 -12 -16 -12 -23 0
-26 3 -17 14 8 9 11 47 9 107 -3 90 -4 94 -29 106 l-27 13 -4 167 c-3 93 -3
171 -1 176 2 4 33 7 69 7 55 0 66 -3 72 -19z m177 8 c10 -14 6 -309 -4 -326
-4 -8 -19 -20 -32 -27 -23 -11 -24 -16 -24 -119 0 -99 -1 -107 -20 -107 -15 0
-16 3 -7 12 8 8 12 46 12 106 l0 93 -35 14 -34 15 -3 156 c-2 85 0 164 4 175
6 16 17 19 72 19 36 0 68 -5 71 -11z m95 -39 c0 -18 -3 -19 -20 -10 -22 12
-18 30 6 30 8 0 14 -9 14 -20z m732 -180 c168 -74 187 -280 36 -376 -30 -19
-51 -24 -108 -24 -96 0 -154 36 -191 119 -49 111 4 234 123 282 57 23 86 23
140 -1z m-1870 -125 c13 -30 2 -74 -22 -85 -14 -7 -62 -21 -140 -40 -19 -4
-60 -18 -90 -30 -30 -12 -68 -26 -85 -31 -16 -5 -39 -13 -50 -18 -11 -5 -40
-17 -65 -26 -56 -22 -142 -61 -240 -110 -88 -44 -91 -45 -198 -110 -46 -27
-91 -54 -100 -60 -48 -28 -203 -139 -248 -177 -28 -24 -79 -65 -112 -93 -73
-60 -288 -275 -357 -360 -28 -33 -53 -62 -56 -65 -13 -11 -159 -210 -159 -216
0 -3 -13 -23 -28 -43 -16 -20 -32 -43 -36 -51 -10 -23 -31 -56 -43 -71 -5 -8
-24 -39 -41 -70 -76 -138 -114 -216 -162 -331 -28 -67 -58 -138 -66 -156 -8
-18 -14 -39 -14 -47 0 -8 -6 -29 -14 -47 -8 -18 -22 -60 -32 -93 -9 -33 -23
-78 -30 -100 -6 -22 -20 -76 -29 -120 -9 -44 -23 -108 -31 -142 -8 -34 -14
-76 -14 -93 0 -16 -7 -71 -16 -122 -13 -75 -15 -151 -11 -422 2 -199 9 -357
16 -396 7 -36 19 -103 27 -150 18 -100 41 -205 61 -275 36 -130 46 -162 59
-193 8 -18 14 -39 14 -47 0 -7 6 -26 14 -42 8 -15 22 -48 31 -73 32 -86 127
-294 155 -340 5 -8 40 -66 77 -129 75 -125 84 -140 128 -203 29 -42 164 -218
175 -228 3 -3 36 -41 74 -85 166 -190 481 -457 688 -580 10 -5 55 -33 100 -60
46 -28 118 -68 161 -89 59 -30 79 -44 84 -64 7 -31 -15 -75 -41 -80 -17 -4
-90 30 -201 92 -22 12 -56 31 -75 42 -100 55 -334 220 -464 328 -147 122 -392
382 -528 561 -47 62 -198 283 -198 290 0 2 -19 36 -43 77 -49 82 -144 275
-177 358 -22 55 -34 84 -64 153 -9 21 -16 44 -16 52 0 8 -6 29 -14 47 -12 30
-21 56 -61 198 -7 25 -21 81 -30 125 -9 44 -23 107 -31 141 -8 33 -14 77 -14
98 0 20 -6 67 -14 104 -30 138 -27 673 4 872 25 162 64 359 85 425 7 22 20 67
30 100 9 33 23 75 31 93 8 18 14 39 14 47 0 8 7 31 16 52 27 62 41 96 60 143
17 46 165 349 187 385 6 11 24 39 40 63 15 24 27 45 27 47 0 7 93 140 168 240
189 250 441 505 668 672 118 87 189 136 332 225 25 16 60 34 187 101 75 39
224 107 234 107 5 0 22 6 38 14 26 13 66 29 153 61 19 7 62 21 95 30 33 10 76
24 95 31 19 7 54 13 78 13 36 1 44 -3 54 -24z m2408 -108 c0 -12 -45 -103
-100 -201 -47 -85 -43 -97 45 -141 75 -37 90 -56 63 -83 -18 -18 -43 -14 -95
16 -26 15 -70 38 -96 51 -27 13 -51 30 -54 38 -3 8 4 33 17 56 12 23 51 98 87
167 36 69 67 128 70 132 6 11 63 -20 63 -35z m-1780 -112 c11 -13 8 -15 -15
-15 -23 0 -26 2 -15 15 7 8 14 15 15 15 1 0 8 -7 15 -15z m503 -16 c-17 -17
-37 -1 -22 17 8 10 15 12 23 4 7 -7 7 -13 -1 -21z m1755 -148 c12 -11 22 -22
22 -25 0 -3 -26 -42 -57 -85 -32 -44 -83 -114 -112 -155 -58 -81 -89 -96 -111
-56 -9 17 -1 34 57 115 116 163 163 225 171 225 4 -1 17 -9 30 -19z m304 -238
c22 -19 23 -55 4 -91 -23 -44 -56 -130 -56 -146 0 -24 16 -20 116 30 92 46 93
46 118 27 41 -29 29 -53 -39 -80 -33 -14 -76 -31 -95 -40 -136 -59 -220 -93
-231 -93 -13 0 -11 34 5 67 8 15 22 48 31 73 9 25 23 60 31 78 8 18 14 40 14
50 0 9 7 26 15 36 8 11 15 28 15 38 0 23 28 68 43 68 6 0 19 -7 29 -17z m452
-495 c72 -93 126 -172 126 -186 0 -21 -32 -42 -50 -32 -8 4 -35 36 -59 69 -47
65 -70 74 -103 44 -26 -23 -23 -37 24 -99 33 -44 40 -59 31 -72 -14 -23 -59
-28 -66 -8 -13 33 -73 105 -87 105 -8 0 -28 -10 -43 -23 l-28 -22 56 -76 c58
-80 64 -98 40 -118 -22 -18 -50 -4 -81 43 -16 23 -46 64 -66 92 -21 27 -38 59
-38 71 0 15 27 40 96 90 53 38 122 88 153 111 31 23 59 42 63 42 4 1 19 -14
32 -31z m344 -545 c24 -52 32 -81 32 -124 0 -52 -3 -59 -35 -87 -43 -38 -97
-55 -133 -41 -36 14 -47 7 -87 -56 -39 -61 -60 -69 -76 -27 -9 22 -6 35 16 77
14 28 31 57 37 66 13 19 3 69 -15 69 -7 0 -35 -11 -63 -24 -45 -22 -50 -23
-61 -8 -7 9 -13 26 -13 38 0 17 20 31 108 74 59 28 132 65 162 80 83 43 91 41
128 -37z m-3833 -124 c124 -22 186 -39 285 -74 43 -16 204 -93 245 -119 147
-89 275 -199 385 -331 59 -71 160 -215 160 -229 0 -3 13 -27 28 -53 16 -26 31
-57 34 -68 4 -11 16 -45 28 -75 67 -172 90 -299 90 -497 0 -260 -39 -429 -153
-658 -28 -57 -39 -71 -61 -73 -54 -7 -223 120 -301 225 l-44 60 20 54 c85 224
90 536 11 744 -104 276 -281 474 -525 589 -43 20 -84 36 -93 36 -8 0 -24 5
-35 10 -10 6 -60 18 -111 26 -163 28 -405 3 -533 -55 -112 -51 -128 -60 -210
-120 -60 -43 -215 -198 -215 -214 0 -5 -11 -23 -25 -41 -36 -47 -110 -211
-130 -286 -38 -143 -48 -312 -28 -465 5 -45 15 -90 22 -102 6 -12 11 -31 11
-42 0 -11 8 -37 17 -58 9 -21 25 -58 36 -83 84 -188 274 -384 457 -470 25 -12
53 -26 62 -31 25 -13 132 -45 203 -60 34 -8 123 -14 205 -14 l146 0 70 -80
c71 -79 128 -135 214 -208 42 -35 44 -39 27 -52 -21 -15 -125 -47 -227 -69
-103 -22 -442 -23 -544 0 -149 32 -224 58 -366 123 -178 82 -389 252 -510 411
-85 112 -185 288 -211 369 -4 14 -17 51 -29 81 -12 30 -25 78 -30 105 -5 28
-13 68 -19 90 -6 22 -11 130 -11 240 0 160 3 219 19 295 18 90 24 111 58 205
23 63 71 168 96 210 6 11 25 43 41 70 111 186 308 379 506 496 161 95 280 140
485 182 85 18 364 22 450 6z m1575 -9 c155 -30 240 -59 375 -126 172 -86 268
-156 405 -293 103 -103 170 -192 257 -336 49 -82 143 -333 143 -382 0 -12 7
-48 15 -80 21 -78 20 -349 0 -463 -17 -94 -40 -178 -61 -228 -8 -18 -14 -38
-14 -45 0 -7 -8 -29 -19 -50 -10 -20 -26 -54 -35 -74 -21 -49 -78 -149 -97
-171 -8 -10 -29 -38 -46 -62 -31 -46 -181 -201 -244 -254 -98 -81 -304 -200
-419 -241 -208 -73 -281 -85 -514 -85 -142 0 -219 4 -270 16 -92 20 -173 42
-214 60 -18 8 -37 14 -43 14 -15 0 -185 85 -244 123 -228 143 -420 355 -533
588 -54 112 -99 234 -112 309 -5 25 -13 63 -19 85 -6 22 -11 130 -11 240 0
157 4 221 19 296 10 53 22 102 26 109 4 7 11 26 15 44 27 105 126 306 152 306
42 0 144 -68 228 -151 110 -110 119 -130 92 -207 -34 -96 -52 -163 -52 -190 0
-14 -5 -63 -12 -108 -17 -119 9 -317 59 -449 25 -65 83 -176 123 -235 66 -97
217 -238 305 -286 18 -10 86 -44 127 -65 67 -34 225 -69 345 -76 97 -6 257 15
321 43 18 8 39 14 46 14 24 0 186 89 244 134 149 115 275 286 337 456 81 224
84 533 7 735 -166 441 -537 696 -978 673 -55 -3 -106 -9 -115 -12 -10 -5 -27
6 -50 31 -68 75 -235 239 -271 268 -21 16 -38 33 -38 39 0 19 114 56 275 89
106 23 376 21 495 -3z m2462 -752 c63 -20 121 -84 138 -151 19 -80 2 -134 -61
-197 -42 -42 -55 -49 -103 -55 -64 -8 -109 0 -154 27 -100 61 -123 217 -45
308 61 71 138 94 225 68z m166 -694 c17 -3 22 -11 22 -34 0 -17 -6 -31 -12
-31 -7 -1 -83 -2 -168 -3 l-155 -1 -7 -73 c-10 -112 -14 -124 -46 -120 l-27 3
-3 124 c-2 83 1 128 9 137 10 12 43 13 188 9 97 -4 186 -8 199 -11z m-298
-529 c47 -9 126 -23 175 -32 50 -9 94 -19 98 -23 4 -4 2 -19 -4 -34 -12 -26
-14 -27 -83 -20 -39 3 -87 10 -108 15 -20 5 -71 14 -114 19 -88 11 -108 24
-98 63 7 32 17 33 134 12z m195 -426 c11 -17 -4 -58 -24 -69 -11 -5 -63 -15
-118 -21 -54 -6 -102 -14 -106 -18 -5 -5 6 -19 25 -32 18 -13 57 -43 86 -68
47 -41 53 -49 50 -81 -5 -64 -14 -59 -202 104 -113 98 -151 135 -144 141 9 9
194 34 263 35 33 1 78 5 100 9 57 12 63 12 70 0z m-494 -483 c249 -130 254
-133 257 -156 2 -12 -3 -29 -10 -38 -8 -9 -31 -52 -53 -95 -44 -90 -60 -103
-94 -78 l-22 17 40 78 c23 42 41 83 41 91 0 8 -15 21 -32 29 -31 13 -34 12
-53 -10 -11 -13 -29 -44 -40 -69 -18 -41 -23 -45 -50 -43 -42 4 -42 26 -4 104
l33 67 -24 19 c-38 31 -60 20 -97 -52 -47 -89 -59 -101 -89 -88 -13 6 -24 17
-24 24 0 22 119 244 131 244 3 0 44 -20 90 -44z m-276 -475 c132 -99 235 -184
235 -193 0 -6 -27 -40 -59 -77 -71 -80 -119 -102 -173 -81 -50 20 -88 60 -99
106 -12 48 -24 54 -111 54 -60 0 -70 9 -45 41 23 29 49 36 118 31 108 -7 130
25 54 80 -50 38 -53 46 -24 76 23 25 21 26 104 -37z m-178 -679 l-28 -27 -139
143 c-77 79 -140 150 -140 157 0 8 10 21 23 30 21 15 25 12 167 -130 l144
-145 -27 -28z m-491 12 c60 -17 101 -52 133 -114 77 -148 -68 -328 -233 -289
-102 24 -166 102 -166 204 0 93 58 171 149 199 60 18 55 18 117 0z m-3111
-543 c15 -47 33 -101 41 -119 8 -18 14 -41 14 -52 0 -10 4 -21 8 -24 4 -2 68
41 141 96 138 103 166 113 138 47 -8 -19 -22 -59 -31 -89 -33 -113 -65 -210
-76 -230 -13 -25 -25 -25 -49 -1 -20 20 -18 61 7 108 14 25 16 73 4 73 -5 0
-26 -15 -48 -33 -64 -54 -104 -79 -118 -74 -7 3 -22 36 -34 74 -13 38 -28 78
-36 88 -13 18 -14 18 -20 -6 -4 -13 -14 -48 -24 -77 -15 -50 -18 -53 -47 -50
-28 3 -30 5 -28 43 2 22 9 56 17 75 7 19 22 62 31 95 10 33 24 75 31 93 8 18
14 41 14 51 0 27 13 34 27 15 6 -9 24 -55 38 -103z m2239 113 c16 -6 24 -73 9
-75 -5 0 -30 -2 -57 -4 -54 -5 -82 -24 -102 -72 -19 -44 -18 -66 7 -119 23
-49 60 -74 107 -74 35 0 102 26 102 40 0 15 36 12 50 -5 19 -23 8 -47 -36 -78
-36 -25 -51 -29 -113 -29 -60 -1 -77 3 -111 26 -22 14 -52 45 -67 69 -23 36
-27 53 -27 119 -1 70 2 80 30 115 50 63 155 107 208 87z m410 -40 c21 -20 20
-27 -4 -49 -20 -18 -21 -18 -42 3 -21 21 -21 22 -3 42 22 24 29 25 49 4z
m-935 -107 c6 -8 15 -40 20 -73 20 -127 34 -201 47 -249 15 -56 12 -62 -33
-71 -28 -6 -33 -3 -37 17 -2 13 -12 62 -21 109 -9 47 -23 117 -31 155 -17 85
-18 112 -1 118 23 10 44 7 56 -6z m-1060 -24 c5 -11 5 -55 0 -113 -16 -161
-16 -167 11 -195 18 -19 33 -25 66 -25 74 0 90 31 102 196 5 63 11 117 15 120
12 12 59 7 68 -7 5 -8 7 -23 5 -34 -3 -11 -10 -67 -17 -125 -6 -58 -16 -118
-22 -134 -14 -38 -53 -73 -104 -92 -39 -15 -45 -15 -93 2 -28 10 -67 34 -87
54 l-35 35 5 115 c3 63 10 139 17 168 10 45 15 52 35 52 14 0 28 -8 34 -17z
m711 -19 c31 -13 40 -21 40 -40 0 -32 -22 -40 -71 -25 -43 13 -71 4 -89 -29
-8 -15 -6 -23 12 -40 13 -11 34 -24 48 -27 75 -19 138 -94 124 -149 -4 -14
-22 -41 -41 -60 -33 -33 -36 -34 -111 -34 -88 0 -116 13 -110 51 3 26 6 26 96
13 47 -7 82 13 82 47 0 20 -58 62 -100 72 -14 3 -38 19 -54 36 -22 23 -28 38
-28 76 0 52 16 76 72 106 44 23 78 24 130 3z"/>
<path d="M5384 7253 c-12 -2 -36 -20 -55 -39 -31 -32 -34 -40 -34 -94 0 -66
19 -96 80 -124 44 -21 85 -12 132 30 37 33 38 36 38 99 0 59 -3 67 -30 94 -30
29 -85 44 -131 34z"/>
<path d="M7489 5487 c-63 -29 -72 -51 -37 -97 27 -37 68 -40 98 -8 23 25 25
39 8 85 -13 35 -26 39 -69 20z"/>
<path d="M7682 4562 c-103 -55 -94 -186 16 -234 42 -19 46 -19 88 -3 63 24 94
65 94 124 0 53 -16 81 -64 110 -40 25 -90 26 -134 3z"/>
<path d="M7116 1891 c-28 -31 -32 -85 -7 -110 30 -30 64 -27 95 10 14 17 26
34 26 39 0 12 -73 80 -86 80 -6 0 -19 -8 -28 -19z"/>
<path d="M6313 1290 c-52 -31 -66 -62 -61 -127 4 -51 9 -60 44 -90 103 -87
239 1 207 134 -6 27 -21 47 -52 70 -50 38 -91 42 -138 13z"/>
</g>
</svg>
